<svg xmlns="http://www.w3.org/2000/svg" width="50.944" height="41.376" viewBox="0 0 50.944 41.376">
  <path id="Icon_awesome-twitter" data-name="Icon awesome-twitter" d="M45.707,13.692c.032.453.032.905.032,1.358,0,13.8-10.506,29.707-29.707,29.707A29.505,29.505,0,0,1,0,40.07a21.6,21.6,0,0,0,2.521.129,20.91,20.91,0,0,0,12.962-4.461A10.459,10.459,0,0,1,5.721,28.5a13.167,13.167,0,0,0,1.972.162,11.043,11.043,0,0,0,2.748-.356A10.442,10.442,0,0,1,2.069,18.056v-.129a10.515,10.515,0,0,0,4.719,1.325A10.457,10.457,0,0,1,3.556,5.288,29.678,29.678,0,0,0,25.084,16.214a11.786,11.786,0,0,1-.259-2.392A10.451,10.451,0,0,1,42.9,6.678a20.556,20.556,0,0,0,6.627-2.521,10.413,10.413,0,0,1-4.59,5.754,20.931,20.931,0,0,0,6.012-1.616,22.444,22.444,0,0,1-5.236,5.4Z" transform="translate(0 -3.381)"/>
</svg>
