<svg xmlns="http://www.w3.org/2000/svg" width="47.453" height="47.453" viewBox="0 0 47.453 47.453">
  <g id="Icon_feather-instagram" data-name="Icon feather-instagram" transform="translate(2.5 2.5)">
    <path id="Caminho_525" data-name="Caminho 525" d="M13.613,3H34.84A10.613,10.613,0,0,1,45.453,13.613V34.84A10.613,10.613,0,0,1,34.84,45.453H13.613A10.613,10.613,0,0,1,3,34.84V13.613A10.613,10.613,0,0,1,13.613,3Z" transform="translate(-3 -3)" fill="none" stroke="#000" stroke-linecap="round" stroke-linejoin="round" stroke-width="5"/>
    <path id="Caminho_526" data-name="Caminho 526" d="M28.954,19.18A8.491,8.491,0,1,1,21.8,12.027a8.491,8.491,0,0,1,7.153,7.153Z" transform="translate(0.763 0.709)" fill="none" stroke="#000" stroke-linecap="round" stroke-linejoin="round" stroke-width="5"/>
    <path id="Caminho_527" data-name="Caminho 527" d="M26.25,9.75h0" transform="translate(6.651 -0.198)" fill="none" stroke="#000" stroke-linecap="round" stroke-linejoin="round" stroke-width="5"/>
  </g>
</svg>
